<svg viewBox="0 0 40 40" fill="none" xmlns="http://www.w3.org/2000/svg">
<path fill-rule="evenodd" clip-rule="evenodd" d="M6.23966 8.33333L18.0885 16.6275C19.2362 17.4309 20.7638 17.4309 21.9115 16.6275L33.7603 8.33333H6.23966ZM36.6667 10.3678L23.8231 19.3583C21.5276 20.9651 18.4724 20.9651 16.1769 19.3583L3.33333 10.3678V30C3.33333 30.9205 4.07953 31.6667 5 31.6667H35C35.9205 31.6667 36.6667 30.9205 36.6667 30V10.3678ZM5 5H35C37.7614 5 40 7.23858 40 10V30C40 32.7614 37.7614 35 35 35H5C2.23858 35 0 32.7614 0 30V10C0 7.23858 2.23858 5 5 5Z" fill="currentColor"/>
</svg>
