<?xml version="1.0" standalone="no"?>
<!DOCTYPE svg PUBLIC "-//W3C//DTD SVG 20010904//EN"
 "http://www.w3.org/TR/2001/REC-SVG-20010904/DTD/svg10.dtd">
<svg version="1.0" xmlns="http://www.w3.org/2000/svg"
 width="512.000000pt" height="512.000000pt" viewBox="0 0 512.000000 512.000000"
 preserveAspectRatio="xMidYMid meet">

<g transform="translate(0.000000,512.000000) scale(0.100000,-0.100000)"
fill="#000000" stroke="none">
<path d="M593 5097 c-84 -30 -145 -75 -188 -140 -67 -101 -65 -74 -65 -867 l0
-717 23 -21 c31 -29 72 -28 102 3 l25 24 0 441 0 440 2070 0 2070 0 0 -1467
c0 -1409 -1 -1470 -19 -1508 -10 -22 -34 -54 -52 -72 -62 -59 -90 -63 -410
-63 l-289 0 0 253 c0 253 0 253 -26 305 -14 29 -41 64 -58 77 -67 51 -96 55
-407 55 l-289 0 0 90 c0 131 -32 193 -125 243 -39 21 -50 22 -395 22 -345 0
-356 -1 -395 -22 -93 -50 -125 -112 -125 -243 l0 -90 -65 0 c-57 0 -69 -3 -90
-25 -31 -30 -33 -77 -5 -105 20 -20 33 -20 829 -20 740 0 810 -1 822 -17 11
-12 14 -55 14 -172 l0 -156 -33 -67 c-38 -79 -77 -113 -209 -187 -109 -62
-152 -71 -365 -71 l-148 0 0 28 c0 79 -60 169 -134 203 -53 24 -139 24 -191 0
-77 -35 -135 -122 -135 -203 l0 -28 -89 0 c-213 0 -316 31 -554 166 -193 109
-239 149 -262 226 -17 58 -20 183 -5 223 14 38 65 55 164 55 75 0 88 3 106 22
27 30 26 73 -5 103 -22 23 -31 25 -123 25 -154 0 -228 -35 -276 -132 -26 -52
-26 -52 -26 -305 l0 -253 -287 0 c-172 0 -303 4 -326 11 -49 13 -115 73 -138
124 -18 38 -19 91 -19 933 0 764 -2 897 -15 921 -23 46 -66 54 -109 20 l-26
-21 2 -931 3 -932 29 -59 c39 -79 102 -140 184 -179 l67 -32 317 -3 317 -3 3
-418 3 -418 30 -49 c19 -30 49 -60 79 -79 l49 -30 1137 0 1137 0 49 30 c30 19
60 49 79 79 l30 49 3 418 3 418 317 3 317 3 67 32 c81 38 146 102 185 181 l28
57 3 1755 c2 1261 0 1770 -8 1807 -25 115 -131 227 -251 264 -59 18 -129 19
-1962 19 l-1902 -1 -62 -22z m3780 -167 c57 -67 67 -117 67 -326 l0 -184
-1975 0 -1975 0 0 176 c0 104 5 192 11 215 22 71 87 131 164 150 17 4 850 7
1852 8 l1821 1 35 -40z m-1459 -2912 c11 -16 16 -46 16 -100 l0 -78 -370 0
-370 0 0 78 c0 131 -29 122 370 122 339 0 339 0 354 -22z m-321 -909 c14 -6
30 -22 36 -36 15 -32 14 -284 0 -317 -26 -55 -112 -55 -138 0 -15 33 -15 285
0 318 18 40 60 54 102 35z"/>
<path d="M908 4890 c-147 -46 -200 -214 -102 -328 93 -109 267 -89 332 38 23
47 29 120 13 163 -13 34 -68 95 -100 112 -35 18 -110 26 -143 15z m96 -182
c17 -50 -42 -89 -78 -52 -19 19 -21 55 -4 72 7 7 26 12 43 10 22 -2 32 -10 39
-30z"/>
<path d="M1428 4886 c-78 -28 -117 -70 -139 -150 -14 -53 5 -128 45 -174 88
-101 243 -93 320 16 77 109 21 269 -107 307 -61 18 -71 18 -119 1z m96 -162
c9 -8 16 -22 16 -30 0 -18 -36 -54 -54 -54 -37 0 -61 61 -34 88 17 17 54 15
72 -4z"/>
<path d="M1970 4891 c-75 -23 -125 -71 -149 -140 -22 -67 -6 -134 45 -191 121
-133 331 -64 352 116 10 93 -59 189 -153 213 -49 12 -59 13 -95 2z m78 -163
c21 -21 15 -68 -10 -77 -45 -17 -87 39 -58 75 15 17 52 18 68 2z"/>
<path d="M1910 3887 c-13 -7 -31 -25 -40 -40 -13 -24 -13 -30 0 -54 30 -54 15
-53 703 -50 l639 2 24 28 c13 15 24 37 24 47 0 10 -11 32 -24 47 l-24 28 -639
2 c-498 2 -643 0 -663 -10z"/>
<path d="M705 3495 l-25 -24 0 -489 c0 -480 0 -490 21 -516 l20 -26 503 0
c499 0 503 0 522 21 18 20 19 43 19 521 l0 500 -24 19 c-22 18 -46 19 -518 19
l-494 0 -24 -25z m905 -402 l0 -278 -66 115 c-36 63 -75 125 -87 138 -27 29
-86 46 -131 38 -52 -10 -89 -47 -146 -147 l-52 -89 -30 25 c-37 31 -67 39
-126 32 -38 -4 -53 -12 -82 -44 -19 -22 -40 -48 -47 -59 -9 -15 -12 41 -12
264 l-1 282 390 0 390 0 0 -277z m-151 -325 l98 -173 -163 -3 c-89 -1 -239 -1
-332 0 l-169 3 48 85 c27 47 52 86 56 87 5 2 23 -24 42 -57 40 -70 74 -89 117
-68 20 9 51 54 112 161 46 82 86 146 89 143 3 -2 49 -82 102 -178z"/>
<path d="M2042 3497 c-22 -23 -22 -24 -22 -520 0 -484 1 -498 20 -517 19 -19
33 -20 520 -20 487 0 501 1 520 20 19 19 20 33 20 518 l0 499 -23 21 c-23 22
-24 22 -518 22 l-496 0 -21 -23z m908 -404 c0 -152 -3 -274 -6 -270 -4 3 -37
59 -73 124 -79 138 -113 167 -192 160 -67 -6 -100 -35 -160 -142 -53 -93 -54
-94 -74 -76 -33 31 -61 41 -110 41 -62 0 -100 -22 -135 -78 l-30 -47 0 283 0
282 390 0 390 0 0 -277z m-160 -314 c52 -94 97 -175 98 -180 2 -5 -129 -9
-327 -9 -182 0 -331 2 -331 5 0 2 24 45 53 94 l53 91 38 -66 c42 -73 72 -92
117 -74 20 9 48 49 110 161 46 81 86 149 89 149 3 0 48 -77 100 -171z"/>
<path d="M3379 3501 l-24 -19 0 -500 c0 -478 1 -501 19 -521 19 -21 23 -21
522 -21 l503 0 20 26 c21 26 21 36 21 516 l0 489 -25 24 -24 25 -494 0 c-472
0 -496 -1 -518 -19z m911 -413 c0 -237 -2 -279 -13 -263 -7 11 -39 66 -70 122
-78 139 -126 175 -212 159 -51 -10 -89 -48 -136 -134 -60 -110 -57 -107 -91
-76 -22 22 -39 28 -85 31 -69 5 -112 -17 -144 -72 -12 -19 -23 -35 -25 -35 -2
0 -4 124 -4 275 l0 275 390 0 390 0 0 -282z m-164 -310 c53 -95 99 -176 101
-180 2 -5 -146 -8 -331 -8 l-334 0 51 90 c29 49 55 89 59 87 4 -1 22 -27 40
-57 18 -30 45 -61 59 -69 49 -27 75 -2 168 162 46 81 86 147 87 147 2 0 47
-78 100 -172z"/>
</g>
</svg>
