<svg viewBox="0 0 40 40" fill="none" xmlns="http://www.w3.org/2000/svg">
<path fill-rule="evenodd" clip-rule="evenodd" d="M20.0352 0.149902C9.01144 0.149902 0.0722656 9.23982 0.0722656 20.4537C0.0722656 29.4246 5.79226 37.0354 13.7242 39.7202C14.7219 39.9082 15.0881 39.2798 15.0881 38.7435C15.0881 38.2593 15.0696 36.6599 15.061 34.9633C9.50731 36.1915 8.33541 32.5676 8.33541 32.5676C7.42731 30.2208 6.11888 29.5967 6.11888 29.5967C4.30764 28.3366 6.25541 28.3624 6.25541 28.3624C8.26003 28.5053 9.31557 30.4548 9.31557 30.4548C11.0961 33.5588 13.9857 32.6615 15.1248 32.1427C15.304 30.8307 15.8214 29.9343 16.3923 29.4276C11.9582 28.9142 7.29706 27.1732 7.29706 19.3932C7.29706 17.1765 8.07689 15.3652 9.35392 13.9433C9.14664 13.4316 8.46334 11.3668 9.54731 8.57006C9.54731 8.57006 11.2237 8.02436 15.0385 10.6513C16.6309 10.2014 18.3387 9.97582 20.0352 9.96809C21.7318 9.97582 23.4409 10.2014 25.0362 10.6513C28.8465 8.02436 30.5205 8.57006 30.5205 8.57006C31.6071 11.3668 30.9235 13.4316 30.7162 13.9433C31.9962 15.3652 32.7708 17.1765 32.7708 19.3932C32.7708 27.1917 28.1007 28.9088 23.6554 29.4115C24.3714 30.0416 25.0095 31.2772 25.0095 33.1715C25.0095 35.8879 24.9863 38.0744 24.9863 38.7435C24.9863 39.2838 25.3457 39.9169 26.3576 39.7175C34.2852 37.0297 39.9979 29.4216 39.9979 20.4537C39.9979 9.23982 31.06 0.149902 20.0352 0.149902Z" fill="currentColor"/>
<path fill-rule="evenodd" clip-rule="evenodd" d="M7.63326 29.3019C7.58929 29.4031 7.43326 29.433 7.29111 29.3637C7.14631 29.2975 7.06499 29.16 7.11193 29.0588C7.15491 28.9549 7.31127 28.9263 7.45574 28.9952C7.60086 29.0618 7.6835 29.2007 7.63326 29.3019Z" fill="currentColor"/>
<path fill-rule="evenodd" clip-rule="evenodd" d="M8.44185 30.2191C8.34664 30.3089 8.16053 30.2672 8.03425 30.1253C7.90367 29.9837 7.87921 29.7944 7.97574 29.7033C8.07392 29.6135 8.25441 29.6556 8.38532 29.7971C8.5159 29.9404 8.54136 30.1283 8.44185 30.2191Z" fill="currentColor"/>
<path fill-rule="evenodd" clip-rule="evenodd" d="M9.22896 31.3885C9.10664 31.4749 8.90664 31.3939 8.78301 31.2133C8.66069 31.0328 8.66069 30.8162 8.78565 30.7295C8.90962 30.6427 9.10665 30.7207 9.23193 30.9C9.35392 31.0832 9.35392 31.3001 9.22896 31.3885Z" fill="currentColor"/>
<path fill-rule="evenodd" clip-rule="evenodd" d="M10.3073 32.5182C10.1979 32.6409 9.96483 32.608 9.79425 32.4406C9.6197 32.2768 9.57111 32.0445 9.68086 31.9218C9.7916 31.7987 10.026 31.8333 10.1979 31.9994C10.3711 32.1628 10.424 32.3968 10.3073 32.5182Z" fill="currentColor"/>
<path fill-rule="evenodd" clip-rule="evenodd" d="M11.7949 33.1742C11.7466 33.3332 11.5222 33.4055 11.2961 33.3379C11.0703 33.2683 10.9225 33.0821 10.9681 32.9214C11.0151 32.7613 11.2405 32.686 11.4683 32.7583C11.6938 32.8275 11.8419 33.0125 11.7949 33.1742Z" fill="currentColor"/>
<path fill-rule="evenodd" clip-rule="evenodd" d="M13.4286 33.2959C13.4342 33.4634 13.2425 33.6022 13.0052 33.6049C12.7665 33.6106 12.5734 33.4751 12.5708 33.3104C12.5708 33.1413 12.7582 33.0037 12.9969 32.9997C13.2342 32.995 13.4286 33.1295 13.4286 33.2959Z" fill="currentColor"/>
<path fill-rule="evenodd" clip-rule="evenodd" d="M14.949 33.0326C14.9774 33.1961 14.8124 33.3638 14.5767 33.4082C14.345 33.4516 14.1304 33.3507 14.101 33.1887C14.0723 33.0212 14.2402 32.8534 14.4716 32.8101C14.7076 32.7684 14.9189 32.8666 14.949 33.0326Z" fill="currentColor"/>
</svg>
