<svg viewBox="0 0 40 30" fill="none" xmlns="http://www.w3.org/2000/svg">
<path d="M2.72727 30.0073H9.09091V14.5528L0 7.73458V27.28C0 28.7868 1.22045 30.0073 2.72727 30.0073Z" fill="currentColor"/>
<path d="M30.9091 30.0073H37.2727C38.7795 30.0073 40 28.7869 40 27.28V7.7346L30.9091 14.5528V30.0073Z" fill="currentColor"/>
<path d="M30.9091 2.73462V14.5528L40 7.7346V4.09826C40 0.727804 36.1523 -1.1972 33.4545 0.825531L30.9091 2.73462Z" fill="currentColor"/>
<path fill-rule="evenodd" clip-rule="evenodd" d="M9.09091 14.5528V2.7346L20 10.9164L30.9091 2.73462V14.5528L20 22.7346L9.09091 14.5528Z" fill="currentColor"/>
<path d="M0 4.09826V7.73458L9.09091 14.5528V2.7346L6.54546 0.825531C3.84773 -1.1972 0 0.727804 0 4.09826Z" fill="currentColor"/>
</svg>
