<svg viewBox="0 0 40 40" fill="none" xmlns="http://www.w3.org/2000/svg">
<path fill-rule="evenodd" clip-rule="evenodd" d="M18.6108 0.0413188C19.9687 0.291452 20.8667 1.59499 20.6165 2.95286L19.2941 10.1315H25.2626L26.7519 2.04705C27.002 0.68918 28.3056 -0.208814 29.6634 0.0413188C31.0213 0.291452 31.9193 1.59499 31.6692 2.95286L30.3468 10.1315H37.5C38.8807 10.1315 40 11.2508 40 12.6315C40 14.0122 38.8807 15.1315 37.5 15.1315H29.4257L27.6321 24.8684H34.7368C36.1176 24.8684 37.2368 25.9877 37.2368 27.3684C37.2368 28.7491 36.1176 29.8684 34.7368 29.8684H26.711L25.2218 37.9529C24.9717 39.3107 23.6681 40.2087 22.3102 39.9586C20.9524 39.7084 20.0544 38.4049 20.3045 37.047L21.6269 29.8684H15.6584L14.1692 37.9529C13.919 39.3107 12.6155 40.2087 11.2576 39.9586C9.89975 39.7084 9.00176 38.4049 9.25189 37.047L10.5743 29.8684H2.5C1.11929 29.8684 0 28.7491 0 27.3684C0 25.9877 1.11929 24.8684 2.5 24.8684H11.4953L13.289 15.1315H6.18421C4.8035 15.1315 3.68421 14.0122 3.68421 12.6315C3.68421 11.2508 4.8035 10.1315 6.18421 10.1315H14.21L15.6993 2.04705C15.9494 0.68918 17.2529 -0.208814 18.6108 0.0413188ZM18.3731 15.1315L16.5795 24.8684H22.548L24.3416 15.1315H18.3731Z" fill="currentColor"/>
</svg>
