<svg viewBox="0 0 40 40" fill="none" xmlns="http://www.w3.org/2000/svg">
<path fill-rule="evenodd" clip-rule="evenodd" d="M6.65577 0C2.97989 0 0 2.98477 0 6.66667V33.3333C0 37.0152 2.97989 40 6.65577 40H32.5109C36.1868 40 39.1667 37.0152 39.1667 33.3333V6.66667C39.1667 2.98477 36.1868 0 32.5109 0H6.65577ZM5.37537 8.948C5.37537 10.9592 6.89769 12.4289 8.77554 12.4289C10.6537 12.4289 12.176 10.9592 12.176 8.948C12.176 6.93711 10.6537 5.4657 8.77554 5.4657C6.89769 5.4657 5.37537 6.93711 5.37537 8.948ZM27.5698 34.3771H33.4676V22.4627C33.4676 16.5784 29.9113 14.5715 26.6204 14.5715C23.5774 14.5715 21.5102 16.5961 20.9395 17.7821V15.1129H15.2675V34.3771H21.1653V23.9327C21.1653 21.1478 22.8808 19.7935 24.6309 19.7935C26.2861 19.7935 27.5698 20.7509 27.5698 23.8554V34.3771ZM11.7243 15.0981V34.3622H5.82678V15.0981H11.7243Z" fill="currentColor"/>
</svg>
