<svg viewBox="0 0 40 40" fill="none" xmlns="http://www.w3.org/2000/svg">
<path fill-rule="evenodd" clip-rule="evenodd" d="M34.2235 5.65265C33.7066 5.13568 33.2605 4.68961 32.8662 4.34562C32.4509 3.98343 32.0038 3.65297 31.4606 3.42797C30.2354 2.9205 28.8589 2.9205 27.6337 3.42797C27.0905 3.65297 26.6434 3.98343 26.2282 4.34562C25.8338 4.68961 25.3878 5.13567 24.8708 5.65263L14.8965 15.6269C14.2048 16.3179 13.682 16.8403 13.2869 17.4616C12.9525 17.9873 12.6935 18.5573 12.5174 19.1549C12.3092 19.8611 12.2596 20.5985 12.1938 21.574L11.9743 24.8126C11.9587 25.0411 11.9406 25.3075 11.9451 25.5409C11.9502 25.8062 11.9834 26.2004 12.184 26.6129C12.4288 27.1162 12.8354 27.5228 13.3387 27.7676C13.7511 27.9682 14.1453 28.0013 14.4106 28.0065C14.644 28.011 14.9104 27.9928 15.139 27.9772L18.3775 27.7577C19.353 27.692 20.0904 27.6423 20.7967 27.4342C21.3943 27.2581 21.9643 26.999 22.49 26.6647C23.1112 26.2695 23.6336 25.7467 24.3246 25.0551L34.2989 15.0807C34.8159 14.5638 35.2619 14.1178 35.6059 13.7234C35.9681 13.3082 36.2986 12.861 36.5236 12.3178C37.0311 11.0927 37.0311 9.71611 36.5236 8.49097C36.2986 7.94776 35.9681 7.50061 35.6059 7.08538C35.262 6.69105 34.8159 6.24505 34.299 5.72817L34.2235 5.65265ZM30.185 6.50756C30.2543 6.53629 30.388 6.60726 30.6751 6.85762C30.9734 7.11785 31.3389 7.48212 31.9042 8.04736C32.4694 8.61261 32.8337 8.97815 33.0939 9.27649C33.3443 9.56352 33.4153 9.69722 33.444 9.76658C33.6131 10.175 33.6131 10.6338 33.444 11.0422C33.4153 11.1115 33.3443 11.2452 33.0939 11.5323C32.9144 11.7381 32.6853 11.976 32.3749 12.2893L27.6623 7.57667C27.9756 7.26624 28.2134 7.03717 28.4193 6.85762C28.7063 6.60726 28.84 6.53629 28.9094 6.50756C29.3177 6.33841 29.7766 6.33841 30.185 6.50756ZM25.3045 9.93298L30.0186 14.647L22.0781 22.5875C21.2283 23.4373 20.9743 23.6782 20.701 23.8521C20.4382 24.0192 20.1532 24.1488 19.8544 24.2368C19.5437 24.3284 19.1952 24.3612 17.9962 24.4425L15.3281 24.6234L15.509 21.9554C15.5903 20.7564 15.6232 20.4078 15.7147 20.0972C15.8028 19.7983 15.9323 19.5134 16.0995 19.2505C16.2733 18.9772 16.5143 18.7232 17.364 17.8735L25.3045 9.93298Z" fill="currentColor"/>
<path d="M18.3431 3.33332C16.0331 3.3333 14.196 3.33329 12.7146 3.45631C11.1975 3.5823 9.90487 3.8459 8.72424 4.45918C6.89781 5.40794 5.40861 6.89714 4.45985 8.72357C3.84657 9.9042 3.58297 11.1968 3.45698 12.714C3.33396 14.1953 3.33397 16.0325 3.33398 18.3425V21.6575C3.33397 23.9675 3.33396 25.8046 3.45698 27.286C3.58297 28.8031 3.84657 30.0958 4.45985 31.2764C5.40861 33.1028 6.89781 34.592 8.72424 35.5408C9.90487 36.1541 11.1975 36.4177 12.7146 36.5437C14.196 36.6667 16.0331 36.6667 18.343 36.6667H21.7403C24.0119 36.6667 25.8187 36.6667 27.2764 36.5476C28.769 36.4256 30.0418 36.1705 31.2072 35.5767C33.0888 34.618 34.6187 33.0882 35.5774 31.2066C36.1712 30.0411 36.4263 28.7684 36.5482 27.2757C36.6673 25.8181 36.6673 24.0114 36.6673 21.7398V21.6667C36.6673 20.7462 35.9211 20 35.0007 20C34.0802 20 33.334 20.7462 33.334 21.6667C33.334 24.0277 33.3327 25.6983 33.226 27.0042C33.1209 28.2908 32.9218 29.0761 32.6074 29.6933C31.9682 30.9477 30.9483 31.9675 29.6939 32.6067C29.0767 32.9212 28.2914 33.1202 27.0049 33.2253C25.6989 33.332 24.0284 33.3333 21.6673 33.3333H18.4173C16.0165 33.3333 14.3177 33.332 12.9905 33.2218C11.6832 33.1132 10.8864 32.9077 10.2608 32.5827C9.0432 31.9502 8.0504 30.9574 7.4179 29.7398C7.09296 29.1143 6.88744 28.3174 6.77888 27.0101C6.66866 25.6829 6.66732 23.9842 6.66732 21.5833V18.4167C6.66732 16.0158 6.66866 14.3171 6.77888 12.9898C6.88744 11.6826 7.09296 10.8857 7.4179 10.2602C8.0504 9.04253 9.0432 8.04973 10.2608 7.41723C10.8864 7.09229 11.6832 6.88678 12.9905 6.77821C14.3177 6.66799 16.0165 6.66665 18.4173 6.66665H20.0007C20.9211 6.66665 21.6673 5.92046 21.6673 4.99998C21.6673 4.07951 20.9211 3.33332 20.0007 3.33332L18.3431 3.33332Z" fill="currentColor"/>
</svg>
